<?xml version="1.0" encoding="UTF-8"?>
<svg version="1.1" xmlns="http://www.w3.org/2000/svg" width="925" height="893">
<path d="M0 0 C0.66 0 1.32 0 2 0 C2.37397168 11.85775368 2.65661153 23.71406208 2.82899475 35.5765543 C2.91181937 41.08777025 3.02373621 46.59489739 3.20703125 52.10375977 C4.65998362 96.9487853 4.65998362 96.9487853 -9.7722168 112.5546875 C-10.81852516 113.61750694 -10.81852516 113.61750694 -11.88597107 114.70179749 C-15.73420531 118.88528877 -18.70672518 123.6932777 -21.8125 128.4375 C-23.05018017 130.26389494 -24.29062938 132.08841984 -25.53515625 133.91015625 C-26.41518311 135.20397217 -26.41518311 135.20397217 -27.31298828 136.52392578 C-29.78203436 140.14781368 -32.26410523 143.76265616 -34.75 147.375 C-35.18795898 148.01163574 -35.62591797 148.64827148 -36.07714844 149.30419922 C-38.30535554 152.54182901 -40.5365175 155.77740258 -42.76953125 159.01171875 C-48.93509239 167.94990101 -55.00387432 176.94728096 -61 186 C-53.88262315 187.68044635 -46.75963453 188.87516371 -39.52734375 189.9453125 C-38.3636879 190.12005096 -37.20003204 190.29478943 -36.00111389 190.474823 C-32.31367957 191.02784907 -28.62560866 191.57649105 -24.9375 192.125 C-22.42508675 192.50101183 -19.91271648 192.87731094 -17.40039062 193.25390625 C-11.2674204 194.17259513 -5.13392266 195.08769321 1 196 C1.0703939 203.73832725 1.12325436 211.47657553 1.15543652 219.21514511 C1.17090446 222.81086513 1.19178326 226.40636168 1.22631836 230.00195312 C1.40499824 249.12192963 0.81952873 267.40235071 -4 286 C-2.43765625 285.98259766 -2.43765625 285.98259766 -0.84375 285.96484375 C9.14904562 285.88971877 19.03615326 286.24902366 29 287 C28.72285156 285.7934375 28.44570313 284.586875 28.16015625 283.34375 C27.79406923 281.72921237 27.42819517 280.11462643 27.0625 278.5 C26.88009766 277.70851563 26.69769531 276.91703125 26.50976562 276.1015625 C26.24389648 274.92207031 26.24389648 274.92207031 25.97265625 273.71875 C25.72914429 272.65043945 25.72914429 272.65043945 25.48071289 271.56054688 C23.91582422 263.22507079 23.86911333 255.12199928 23.90234375 246.65625 C23.90421212 245.27762911 23.90563404 243.89900754 23.90663147 242.52038574 C23.91042365 238.916851 23.92022522 235.31335748 23.93133545 231.70983887 C23.94162104 228.02271075 23.94614431 224.33557588 23.95117188 220.6484375 C23.96185091 213.43227301 23.97888701 206.21614231 24 199 C29.82127597 198.78375866 35.1309167 199.60000462 40.8359375 200.71484375 C41.75589508 200.89004044 42.67585266 201.06523712 43.62368774 201.2457428 C45.55554292 201.61509673 47.48680168 201.98758253 49.41748047 202.36303711 C52.3849253 202.93942787 55.35434767 203.50461797 58.32421875 204.06835938 C60.20325103 204.42903154 62.08216187 204.79033707 63.9609375 205.15234375 C64.85251556 205.3221727 65.74409363 205.49200165 66.66268921 205.66697693 C72.88430647 206.88430647 72.88430647 206.88430647 74 208 C74.10653707 209.3575998 74.14617806 210.72055065 74.15771484 212.08227539 C74.17310806 213.38612938 74.17310806 213.38612938 74.18881226 214.71632385 C74.19611359 215.66716354 74.20341492 216.61800323 74.2109375 217.59765625 C74.23906146 219.61784587 74.26772609 221.63802803 74.296875 223.65820312 C74.3377253 226.83698874 74.37460554 230.01564315 74.40136719 233.19458008 C74.67456075 263.06452752 80.30003041 288.26202696 102 310 C102.68449219 310.69609375 103.36898438 311.3921875 104.07421875 312.109375 C121.92744857 329.1375942 145.22943952 334.01603344 169 335 C170.05938145 326.10677153 166.66685326 321.10892573 161.875 313.8125 C161.13949154 312.66085751 160.40587584 311.50800419 159.67407227 310.35400391 C158.18291082 308.00978045 156.68072306 305.6732915 155.16748047 303.34326172 C153.2101133 300.32409231 151.27317866 297.29344662 149.34765625 294.25390625 C147.07422797 290.66550638 144.79274866 287.0824932 142.50390625 283.50390625 C138.10803091 276.61666266 133.78847686 269.6820822 129.46459961 262.74951172 C125.66188117 256.65429025 121.84259369 250.57015602 118 244.5 C113.47408275 237.34941858 108.98111995 230.17873492 104.5 223 C98.03499255 212.64435712 91.52948379 202.31507724 85 192 C77.81970618 180.65679314 70.67589562 169.29176255 63.56713867 157.90356445 C59.72903366 151.75779083 55.87503176 145.62255017 52 139.5 C47.39488548 132.22191 42.81591766 124.92774504 38.25 117.625 C37.34701172 116.18157227 37.34701172 116.18157227 36.42578125 114.70898438 C35.26099771 112.84456608 34.10841319 110.97245447 32.96990967 109.09187317 C31.07460414 106.00723043 31.07460414 106.00723043 28.92193604 103.34465027 C21.48263603 93.21777155 21.95757626 83.58027927 22.21875 71.38671875 C22.23370001 69.32023831 22.24507396 67.2537292 22.25305176 65.18721008 C22.28336868 59.78935285 22.36175231 54.39326096 22.45068359 48.99609375 C22.53301955 43.47224804 22.56916463 37.94811266 22.609375 32.42382812 C22.69476889 21.61511644 22.83102408 10.8077059 23 0 C26.83224312 1.27741437 27.2501374 2.58852541 29.30078125 6.01171875 C29.94112305 7.06866943 30.58146484 8.12562012 31.24121094 9.21459961 C31.57858276 9.78032684 31.91595459 10.34605408 32.2635498 10.92892456 C33.68317016 13.3089322 35.12161397 15.67733888 36.55960083 18.04627991 C37.29655716 19.26036862 38.03261335 20.47500415 38.76779175 21.69017029 C42.18091489 27.3245556 45.69810732 32.88960568 49.25 38.4375 C49.82476074 39.33702393 50.39952148 40.23654785 50.99169922 41.16333008 C52.12120924 42.93090234 53.25108272 44.6982424 54.38134766 46.46533203 C62.14645883 58.62481682 69.79368635 70.85865702 77.43334961 83.09716797 C81.27125427 89.24272009 85.12503039 95.37775805 89 101.5 C93.52586201 108.65061666 98.01887978 115.82126466 102.5 123 C108.96500745 133.35564288 115.47051621 143.68492276 122 154 C129.18029382 165.34320686 136.32410438 176.70823745 143.43286133 188.09643555 C147.74061167 194.99422973 152.07039697 201.87753651 156.42382812 208.74658203 C159.28300006 213.26334254 162.11859643 217.79391802 164.9375 222.3359375 C165.94876953 223.96305664 165.94876953 223.96305664 166.98046875 225.62304688 C168.29828524 227.74506278 169.61351176 229.86868994 170.92578125 231.99414062 C171.52777344 232.96287109 172.12976563 233.93160156 172.75 234.9296875 C173.28109375 235.78804199 173.8121875 236.64639648 174.359375 237.53076172 C176.08597177 240.12939263 178.0509896 242.56373699 180 245 C181.32 236.42 182.64 227.84 184 219 C187.50927686 219.87731922 188.83475939 220.36803901 191.58984375 222.37890625 C192.6267334 223.13046997 192.6267334 223.13046997 193.68457031 223.8972168 C194.42803711 224.44676025 195.17150391 224.99630371 195.9375 225.5625 C197.1126416 226.42065308 197.1126416 226.42065308 198.31152344 227.29614258 C205.43419148 232.52321666 212.44977414 237.89038906 219.46069336 243.26586914 C224.77369233 247.33203473 230.13957041 251.28917505 235.61425781 255.13354492 C241.96028982 259.62168033 248.09399234 264.38888805 254.26171875 269.1171875 C259.1176556 272.83096316 263.99698678 276.4869883 269 280 C274.95247948 284.17970714 280.72797192 288.5751697 286.5 293 C292.82562047 297.84816864 299.17875473 302.62305756 305.69458008 307.21191406 C311.63942178 311.41521477 317.4414988 315.80555292 323.25708008 320.18505859 C329.06259272 324.55442164 334.89435234 328.88558672 340.75 333.1875 C346.52234096 337.42917517 352.27621546 341.69301509 358 346 C367.81489428 353.38299388 377.71553362 360.64925802 387.61376953 367.91992188 C389.36024047 369.20288518 391.10642035 370.4862448 392.85229492 371.77001953 C394.49109586 372.97505287 396.1305452 374.17920507 397.77075195 375.38232422 C399.22102971 376.44893144 400.66845527 377.51943338 402.11230469 378.59472656 C403.7463786 379.81119441 405.39172666 381.01249009 407.0390625 382.2109375 C407.68617188 382.80132812 408.33328125 383.39171875 409 384 C409 384.99 409 385.98 409 387 C397.62027677 387.44543913 386.24270957 387.78036018 374.85596085 387.98443127 C369.56468565 388.08251915 364.27947944 388.21484287 358.99169922 388.43334961 C332.05869008 389.51596599 313.63396493 388.56757337 292.92669678 370.4815979 C288.44366405 366.68035526 283.58540221 363.53263654 278.66796875 360.328125 C276.91379141 359.14738303 275.16172342 357.96350074 273.41186523 356.77636719 C271.67051675 355.60075356 269.92906012 354.4253001 268.1875 353.25 C267.27574005 352.63467407 266.3639801 352.01934814 265.42459106 351.38537598 C244.27368193 336.24502402 244.27368193 336.24502402 222 323 C221.96841797 323.6585498 221.93683594 324.31709961 221.90429688 324.99560547 C221.24036336 335.71813179 219.59713243 346.28226305 217.98876953 356.89648438 C217.49598455 360.15152361 217.01116313 363.40767978 216.52734375 366.6640625 C216.21660879 368.73704862 215.90542731 370.80996786 215.59375 372.8828125 C215.44893188 373.85461456 215.30411377 374.82641663 215.15490723 375.82766724 C215.01806519 376.72645599 214.88122314 377.62524475 214.74023438 378.55126953 C214.62111694 379.34034698 214.50199951 380.12942444 214.37927246 380.94241333 C214 383 214 383 213 386 C205.74864154 386.04690097 198.4973172 386.08215607 191.24583626 386.10362434 C187.8765425 386.11394212 184.50743348 386.1290087 181.13818359 386.15087891 C143.51347449 386.3887443 143.51347449 386.3887443 126.5 381.4375 C125.28763672 381.10588867 125.28763672 381.10588867 124.05078125 380.76757812 C118.40481086 379.20240543 118.40481086 379.20240543 116 378 C116.33 378.99 116.66 379.98 117 381 C117.3466511 383.96872614 117.4709357 386.95315325 117.625 389.9375 C117.66931152 390.78763672 117.71362305 391.63777344 117.75927734 392.51367188 C118.09694283 400.03064707 118.40403672 407.78788985 116 415 C117.01835938 414.67386719 118.03671875 414.34773438 119.0859375 414.01171875 C120.51543655 413.5697026 121.94513557 413.12833276 123.375 412.6875 C124.035 412.47416016 124.695 412.26082031 125.375 412.04101562 C143.45536524 406.53472257 161.38533005 406.62312619 180.125 406.8125 C182.74087767 406.82758225 185.35676379 406.84126435 187.97265625 406.85351562 C194.31548984 406.88364308 200.65712192 406.94241503 207 407 C204.69 423.5 202.38 440 200 457 C180 457.3125 180 457.3125 173.796875 457.38793945 C145.870509 457.86240768 122.12096224 464.91421426 102 485 C101.30390625 485.68449219 100.6078125 486.36898438 99.890625 487.07421875 C82.8624058 504.92744857 77.98396656 528.22943952 77 552 C85.59285296 552.93611759 90.16676047 550.09247251 97.1875 545.375 C98.23341309 544.69638916 99.27932617 544.01777832 100.35693359 543.31860352 C102.5244902 541.91150428 104.68691992 540.4964769 106.84423828 539.07373047 C110.67618546 536.55566151 114.54469456 534.09915228 118.41992188 531.6484375 C121.13711251 529.92983895 123.84865013 528.2026562 126.55859375 526.47265625 C132.09915529 522.93631874 137.64258572 519.40450827 143.1875 515.875 C144.10289551 515.29226318 145.01829102 514.70952637 145.96142578 514.10913086 C152.57060159 509.90398824 159.1913503 505.7174773 165.81713867 501.53857422 C171.88787506 497.70769308 177.94559506 493.85663068 184 490 C191.59458082 485.1622837 199.20015083 480.34256929 206.81640625 475.5390625 C212.88736013 471.70797641 218.94534761 467.85678831 225 464 C232.59458082 459.1622837 240.20015083 454.34256929 247.81640625 449.5390625 C254.82470064 445.11646604 261.81540639 440.66646706 268.80419922 436.21313477 C273.85793028 432.99434187 278.91746276 429.785347 283.99072266 426.59741211 C284.86003418 426.04964111 285.7293457 425.50187012 286.625 424.9375 C287.28000551 424.53418835 287.93501102 424.13087669 288.60986519 423.71534348 C292.70776296 421.16687783 296.66706796 418.54638562 300.50665283 415.62104797 C313.18352958 406.20746691 322.74132255 404.17870344 338.296875 404.73046875 C340.35331322 404.75479846 342.40982823 404.77326404 344.46636963 404.78620911 C349.80798599 404.83520158 355.14480316 404.96229322 360.48455811 405.10736084 C365.96170147 405.24177869 371.4396418 405.30002078 376.91796875 405.36523438 C387.6140565 405.50350944 398.30662513 405.72455061 409 406 C409 406.99 409 407.98 409 409 C406.55387649 410.70885001 404.14329515 412.20484588 401.5625 413.6875 C399.90461662 414.66912157 398.24846228 415.65366731 396.59375 416.640625 C395.69398438 417.17623047 394.79421875 417.71183594 393.8671875 418.26367188 C388.70361803 421.39065639 383.63758442 424.66957076 378.5625 427.9375 C376.41163993 429.31929313 374.26059991 430.70080619 372.109375 432.08203125 C371.07232422 432.74799316 370.03527344 433.41395508 368.96679688 434.10009766 C364.7604537 436.79379109 360.53870968 439.46261852 356.3125 442.125 C349.53007059 446.39859113 342.76109926 450.69273825 336 455 C329.17540629 459.34729051 322.34406585 463.6834287 315.5 468 C304.98031048 474.63575161 294.49006397 481.31754869 284 488 C272.73971766 495.17310101 261.4754005 502.33919004 250.18286133 509.46142578 C244.11212494 513.29230692 238.05440494 517.14336932 232 521 C224.40987439 525.83487834 216.80927438 530.6525796 209.19677734 535.45214844 C202.0541894 539.95837139 194.93349956 544.49873079 187.81567383 549.04394531 C181.65365275 552.97130241 175.44731401 556.81013655 169.16796875 560.546875 C166.88496065 561.81843295 166.88496065 561.81843295 166 564 C167.11375 563.9690625 168.2275 563.938125 169.375 563.90625 C174.34638788 563.90625 179.10973106 564.66617534 184 565.5 C185.30517578 565.71462891 185.30517578 565.71462891 186.63671875 565.93359375 C188.75875695 566.28338027 190.87952028 566.6408865 193 567 C192.39524816 570.05653936 191.45311877 572.07979068 189.62109375 574.58984375 C188.86953003 575.6267334 188.86953003 575.6267334 188.1027832 576.68457031 C187.55323975 577.42803711 187.00369629 578.17150391 186.4375 578.9375 C185.57934692 580.1126416 185.57934692 580.1126416 184.70385742 581.31152344 C179.47678334 588.43419148 174.10961094 595.44977414 168.73413086 602.46069336 C164.66796527 607.77369233 160.71082495 613.13957041 156.86645508 618.61425781 C153.04767035 624.01385652 149.02324686 629.25182272 145 634.5 C140.15183136 640.82562047 135.37694244 647.17875473 130.78808594 653.69458008 C126.58478523 659.63942178 122.19444708 665.4414988 117.81494141 671.25708008 C113.44557836 677.06259272 109.11441328 682.89435234 104.8125 688.75 C100.57082483 694.52234096 96.30698491 700.27621546 92 706 C87.67650294 711.74762316 83.38903774 717.52062347 79.125 723.3125 C78.53831543 724.10930176 77.95163086 724.90610352 77.34716797 725.72705078 C74.41474278 729.71210028 71.48647219 733.70015084 68.5625 737.69140625 C61.70972123 747.03380052 54.75142431 756.28539953 47.7043457 765.48217773 C43.03544803 771.59259541 38.51301136 777.78330343 34.11328125 784.08984375 C31.85113613 787.20499738 29.57376512 790.13599271 27 793 C26.34 793 25.68 793 25 793 C24.74379551 781.02076344 24.54901162 769.04219088 24.43006611 757.0607605 C24.37294209 751.49556908 24.29561881 745.93226781 24.17016602 740.36816406 C24.0495981 734.98630549 23.98465955 729.60625057 23.95635033 724.22314453 C23.93620899 722.18184038 23.89687967 720.14062187 23.83696938 718.10009766 C23.44316271 704.11585945 25.44083533 695.56695918 34.54294395 684.7880249 C37.07783671 681.67733373 39.26575426 678.32938507 41.5 675 C42.41518599 673.66564991 43.33167963 672.3321949 44.25 671 C44.70375 670.34 45.1575 669.68 45.625 669 C60.75 647 60.75 647 62.12548828 644.99951172 C63.04080375 643.66799596 63.95584348 642.3362906 64.87060547 641.00439453 C67.18070521 637.64163274 69.49571251 634.28244506 71.8203125 630.9296875 C77.72765545 622.39674506 83.45030543 613.76988771 89 605 C88.3414502 604.96841797 87.68290039 604.93683594 87.00439453 604.90429688 C76.28186821 604.24036336 65.71773695 602.59713243 55.10351562 600.98876953 C51.84847639 600.49598455 48.59232022 600.01116313 45.3359375 599.52734375 C43.26295138 599.21660879 41.19003214 598.90542731 39.1171875 598.59375 C38.14538544 598.44893188 37.17358337 598.30411377 36.17233276 598.15490723 C35.27354401 598.01806519 34.37475525 597.88122314 33.44873047 597.74023438 C32.65965302 597.62111694 31.87057556 597.50199951 31.05758667 597.37927246 C29 597 29 597 26 596 C25.95313887 588.73137069 25.91786325 581.46277527 25.89637566 574.19402409 C25.88604958 570.81685497 25.87097151 567.43986963 25.84912109 564.06274414 C25.62635883 528.71561442 25.62635883 528.71561442 30.125 511.4375 C30.30675781 510.70337891 30.48851562 509.96925781 30.67578125 509.21289062 C31.10792727 507.47293429 31.55240835 505.73604722 32 504 C31.4121875 504.144375 30.824375 504.28875 30.21875 504.4375 C18.93506372 506.77205578 7.46442942 506.18078309 -4 506 C-3.58427734 507.90072266 -3.58427734 507.90072266 -3.16015625 509.83984375 C-2.79403709 511.53901215 -2.42816488 513.23823378 -2.0625 514.9375 C-1.88009766 515.76830078 -1.69769531 516.59910156 -1.50976562 517.45507812 C-1.33251953 518.28330078 -1.15527344 519.11152344 -0.97265625 519.96484375 C-0.72914429 521.08814087 -0.72914429 521.08814087 -0.48071289 522.23413086 C1.01739471 530.85376573 1.1332459 539.27437384 1.09765625 548.00390625 C1.09553383 549.9824485 1.09553383 549.9824485 1.09336853 552.0009613 C1.08958243 555.47789466 1.07978636 558.95478507 1.06866455 562.43170166 C1.0583656 565.99157124 1.05385288 569.55144788 1.04882812 573.11132812 C1.03815988 580.07423619 1.02113145 587.03711603 1 594 C-5.39799227 593.44396569 -11.66078387 592.62626199 -17.96484375 591.40625 C-19.1648275 591.17887146 -19.1648275 591.17887146 -20.38905334 590.94689941 C-22.0589946 590.62957188 -23.72854481 590.31017978 -25.39770508 589.98876953 C-27.9549666 589.49663865 -30.51348299 589.01149718 -33.07226562 588.52734375 C-34.7032021 588.21655014 -36.33406429 587.90536642 -37.96484375 587.59375 C-38.72731918 587.44893188 -39.48979462 587.30411377 -40.27537537 587.15490723 C-43.2605447 586.57814985 -46.11178866 585.96273711 -49 585 C-49.01981934 583.7404248 -49.03963867 582.48084961 -49.06005859 581.18310547 C-49.13696202 576.44529462 -49.22553787 571.70775762 -49.31738281 566.97021484 C-49.35532665 564.93185896 -49.39023515 562.89344395 -49.421875 560.85498047 C-49.73148048 539.03568326 -49.73148048 539.03568326 -54.6875 517.875 C-55.07723999 516.73816772 -55.07723999 516.73816772 -55.47485352 515.57836914 C-63.24392049 493.83098089 -79.94085905 476.22798413 -100.58203125 466.21484375 C-114.79510135 459.83698319 -128.63713023 458.20251805 -144 457 C-144.91818187 465.3490233 -142.89243279 470.10460061 -138.25 476.9375 C-137.66162354 477.8435498 -137.07324707 478.74959961 -136.46704102 479.68310547 C-135.25048934 481.55560095 -134.02526224 483.42248812 -132.79150391 485.28369141 C-130.10607004 489.35539176 -127.52693609 493.49190308 -124.9375 497.625 C-123.94370654 499.19724598 -122.94891615 500.76886226 -121.953125 502.33984375 C-121.21932617 503.49782471 -121.21932617 503.49782471 -120.47070312 504.67919922 C-119.98537109 505.44506348 -119.50003906 506.21092773 -119 507 C-111.81813787 518.34220535 -104.67588773 529.70825009 -97.56713867 541.09643555 C-93.72903409 547.24220848 -89.87512646 553.37751023 -86 559.5 C-80.82315779 567.67913011 -75.69200736 575.88633973 -70.56640625 584.09765625 C-66.72850981 590.24299963 -62.87487269 596.37791117 -59 602.5 C-53.82315779 610.67913011 -48.69200736 618.88633973 -43.56640625 627.09765625 C-39.72850981 633.24299963 -35.87487269 639.37791117 -32 645.5 C-26.83337351 653.66298981 -21.71151975 661.85349221 -16.59716797 670.04931641 C-11.95720854 677.4806985 -7.28876736 684.89357777 -2.59179688 692.2890625 C-2.13095703 693.01609375 -1.67011719 693.743125 -1.1953125 694.4921875 C-0.79328613 695.12495605 -0.39125977 695.75772461 0.02294922 696.40966797 C2.4778831 700.40552987 2.13278519 704.1024495 2.11352539 708.67236328 C2.11367142 709.56998383 2.11381744 710.46760437 2.1139679 711.39242554 C2.11326953 714.36841218 2.10548067 717.34433675 2.09765625 720.3203125 C2.0957918 722.38011643 2.09436802 724.43992081 2.09336853 726.49972534 C2.08954548 731.92817402 2.07971699 737.35659605 2.06866455 742.78503418 C2.05844588 748.32152954 2.05386993 753.85802919 2.04882812 759.39453125 C2.03809455 770.26303256 2.02102065 781.13151406 2 792 C1.01 792 0.02 792 -1 792 C-2.5871582 789.96240234 -2.5871582 789.96240234 -4.30078125 787.0859375 C-4.94088135 786.02616699 -5.58098145 784.96639648 -6.24047852 783.87451172 C-6.57782013 783.30472595 -6.91516174 782.73494019 -7.26272583 782.14788818 C-8.68292877 779.74940947 -10.1265263 777.36533735 -11.56907654 774.98025513 C-12.30772145 773.75855221 -13.04514787 772.5361118 -13.78138733 771.31295776 C-17.11811362 765.77534894 -20.57101812 760.31629002 -24.0625 754.875 C-28.96254025 747.21567307 -33.81301452 739.52746782 -38.625 731.8125 C-45.04651391 721.51814947 -51.51064364 711.25168517 -58 701 C-65.18029382 689.65679314 -72.32410438 678.29176255 -79.43286133 666.90356445 C-83.27096591 660.75779152 -87.12487354 654.62248977 -91 648.5 C-96.17684221 640.32086989 -101.30799264 632.11366027 -106.43359375 623.90234375 C-110.27149019 617.75700037 -114.12512731 611.62208883 -118 605.5 C-122.52586221 598.34938302 -127.01883282 591.1787063 -131.5 584 C-136.21462421 576.44912634 -140.93753111 568.90370069 -145.6875 561.375 C-146.16832031 560.611875 -146.64914062 559.84875 -147.14453125 559.0625 C-147.82128906 557.99128906 -147.82128906 557.99128906 -148.51171875 556.8984375 C-149.09119263 555.98070557 -149.09119263 555.98070557 -149.68237305 555.04443359 C-151.42370248 552.34258208 -153.21698356 549.67452466 -155 547 C-156.98 560.365 -156.98 560.365 -159 574 C-163.596173 572.85095675 -166.40462683 570.65471776 -170.0625 567.8125 C-171.50061318 566.71394132 -172.93944566 565.61632379 -174.37890625 564.51953125 C-175.13316895 563.94283691 -175.88743164 563.36614258 -176.66455078 562.77197266 C-180.57696145 559.80351388 -184.53979591 556.90420337 -188.5 554 C-194.35589463 549.69618515 -200.19305057 545.36962908 -206 541 C-211.74762008 536.67649884 -217.5206235 532.38903772 -223.3125 528.125 C-224.10930176 527.53831543 -224.90610352 526.95163086 -225.72705078 526.34716797 C-229.71210028 523.41474278 -233.70015084 520.48647219 -237.69140625 517.5625 C-247.04480702 510.70164781 -256.3057613 503.73320964 -265.51513672 496.68017578 C-270.81153053 492.63485215 -276.16102294 488.69593368 -281.61450195 484.86621094 C-287.96056619 480.37832487 -294.09408849 475.61103825 -300.26171875 470.8828125 C-305.1176556 467.16903684 -309.99698678 463.5130117 -315 460 C-320.95247948 455.82029286 -326.72797192 451.4248303 -332.5 447 C-338.29501071 442.55850856 -344.0928875 438.14226165 -350.0625 433.9375 C-358.40690352 428.0514477 -366.55059642 421.89722301 -374.69042969 415.73242188 C-376.24271011 414.56804747 -377.80617132 413.41844514 -379.37988281 412.28320312 C-380.11303711 411.75146484 -380.84619141 411.21972656 -381.6015625 410.671875 C-382.25721191 410.20362305 -382.91286133 409.73537109 -383.58837891 409.25292969 C-384.28713135 408.63272949 -384.28713135 408.63272949 -385 408 C-385 407.34 -385 406.68 -385 406 C-373.07278317 405.69675895 -361.1465052 405.46679395 -349.21619701 405.32644176 C-343.67422578 405.25902452 -338.13491983 405.16783231 -332.59448242 405.01928711 C-327.2319873 404.87643764 -321.87202924 404.79998291 -316.50777626 404.76659584 C-314.4772076 404.74285373 -312.44675413 404.69649706 -310.41728783 404.62550926 C-295.0361365 404.10964897 -285.95759304 407.62369306 -274.03499794 417.35323524 C-271.45667779 419.43966819 -268.78731159 421.38104543 -266.09739971 423.32005596 C-264.2969155 424.61882585 -262.51249799 425.93777144 -260.73046875 427.26171875 C-256.75852374 430.1934678 -252.72727947 433.03777243 -248.6875 435.875 C-242.82029591 439.99611561 -236.99043558 444.16389055 -231.1875 448.375 C-220.57517844 456.07016276 -209.90805915 463.72796057 -199 471 C-197.22921552 469.22921552 -197.41574543 466.61793819 -197.07617188 464.2109375 C-196.81084656 462.3539624 -196.81084656 462.3539624 -196.54016113 460.45947266 C-196.44707169 459.79393372 -196.35398224 459.12839478 -196.2580719 458.44268799 C-195.9675821 456.3666534 -195.67193745 454.2914126 -195.37487793 452.21630859 C-194.74526515 447.81152755 -194.1221791 443.40583637 -193.5 439 C-192.77929629 433.89648138 -192.05596901 428.79336502 -191.32557678 423.69122314 C-191.03359416 421.64145638 -190.74664344 419.5910241 -190.45983887 417.54052734 C-190.19451355 415.68355225 -190.19451355 415.68355225 -189.92382812 413.7890625 C-189.76918091 412.69287598 -189.61453369 411.59668945 -189.4552002 410.46728516 C-189 408 -189 408 -188 407 C-186.10145234 406.89021999 -184.19880009 406.85088514 -182.29711914 406.83886719 C-181.073965 406.82925964 -179.85081085 406.8196521 -178.59059143 406.80975342 C-177.23878161 406.80489773 -175.8869696 406.80062081 -174.53515625 406.796875 C-173.85245604 406.79404762 -173.16975582 406.79122025 -172.46636772 406.78830719 C-168.8341012 406.77326644 -165.20187469 406.76407559 -161.56958008 406.75976562 C-158.59516857 406.75542213 -155.62105387 406.74170119 -152.64672852 406.71875 C-135.43655858 406.58836117 -118.7794148 406.63677109 -102 411 C-102.00785522 409.79670044 -102.00785522 409.79670044 -102.01586914 408.5690918 C-102.03662897 404.94190247 -102.04965702 401.31472563 -102.0625 397.6875 C-102.07087891 396.42486328 -102.07925781 395.16222656 -102.08789062 393.86132812 C-102.09272461 392.04858398 -102.09272461 392.04858398 -102.09765625 390.19921875 C-102.10551147 388.52605591 -102.10551147 388.52605591 -102.11352539 386.8190918 C-102 384 -102 384 -101 381 C-102.75763672 381.41572266 -102.75763672 381.41572266 -104.55078125 381.83984375 C-106.1379331 382.20610956 -107.72517779 382.57197321 -109.3125 382.9375 C-110.07884766 383.11990234 -110.84519531 383.30230469 -111.63476562 383.49023438 C-121.84632803 385.82067393 -132.00802169 386.14752381 -142.44921875 386.09765625 C-144.15716362 386.09553383 -144.15716362 386.09553383 -145.89961243 386.09336853 C-149.49560298 386.08782209 -153.09152863 386.07527989 -156.6875 386.0625 C-159.14257722 386.05747807 -161.59765542 386.05291638 -164.05273438 386.04882812 C-170.03517797 386.03787028 -176.01758434 386.02118647 -182 386 C-180.40518489 372.97859194 -178.7895011 359.96974261 -176.8125 347 C-176.54663086 345.23076172 -176.54663086 345.23076172 -176.27539062 343.42578125 C-175.85289819 340.61677747 -175.42783132 337.80819459 -175 335 C-174.42165405 334.99635437 -173.84330811 334.99270874 -173.24743652 334.98895264 C-167.14585307 334.94665319 -161.0449891 334.87698864 -154.94384766 334.79248047 C-152.6766688 334.76451442 -150.40939686 334.74318076 -148.14208984 334.72900391 C-123.96912379 334.56891804 -102.14598318 330.87570655 -83 315 C-81.72382812 313.96746094 -81.72382812 313.96746094 -80.421875 312.9140625 C-58.17737885 294.01306424 -51.95050969 268.80209532 -49 241 C-58.64000938 239.78716743 -64.03412653 242.69236755 -71.8125 248.125 C-73.46065666 249.22835409 -75.10883263 250.33168186 -76.75860596 251.43261719 C-78.43263434 252.55404479 -80.09930453 253.68577823 -81.76513672 254.81933594 C-86.57370094 258.06085259 -91.47074813 261.1560307 -96.375 264.25 C-98.1851926 265.4005749 -99.99509303 266.55160961 -101.8046875 267.703125 C-107.4689315 271.30020326 -113.14252223 274.88239131 -118.81787109 278.46191406 C-124.88839 282.29259022 -130.94584252 286.14352695 -137 290 C-144.59458082 294.8377163 -152.20015083 299.65743071 -159.81640625 304.4609375 C-165.88736013 308.29202359 -171.94534761 312.14321169 -178 316 C-185.59458082 320.8377163 -193.20015083 325.65743071 -200.81640625 330.4609375 C-206.88736013 334.29202359 -212.94534761 338.14321169 -219 342 C-226.59458082 346.8377163 -234.20015083 351.65743071 -241.81640625 356.4609375 C-248.71471832 360.81412943 -255.59709912 365.19215161 -262.47460938 369.578125 C-264.18405435 370.66751608 -265.90167552 371.74416471 -267.62651062 372.809021 C-270.16741348 374.41344527 -272.56512717 376.15423288 -274.96943665 377.95611572 C-287.38454871 386.94231222 -296.90123569 388.6698895 -311.98046875 388.171875 C-314.01592436 388.14942055 -316.05144598 388.13237362 -318.08699036 388.12042236 C-323.37734399 388.07517104 -328.66357733 387.95782387 -333.95233154 387.82397461 C-339.37585739 387.69996153 -344.80006651 387.64614782 -350.22460938 387.5859375 C-360.81819094 387.45824888 -371.40874952 387.25417042 -382 387 C-382 386.01 -382 385.02 -382 384 C-380.28198242 382.56469727 -380.28198242 382.56469727 -377.85546875 381.06640625 C-376.96085937 380.50630859 -376.06625 379.94621094 -375.14453125 379.36914062 C-374.16871094 378.77294922 -373.19289063 378.17675781 -372.1875 377.5625 C-371.1871875 376.93923828 -370.186875 376.31597656 -369.15625 375.67382812 C-367.09418655 374.38928543 -365.02954437 373.1088735 -362.96240234 371.83251953 C-358.78947656 369.25117942 -354.64485601 366.62606901 -350.5 364 C-348.94801049 363.02068462 -347.39592585 362.04152001 -345.84375 361.0625 C-340.55403133 357.72162505 -335.27676823 354.36127935 -330 351 C-322.40541918 346.1622837 -314.79984917 341.34256929 -307.18359375 336.5390625 C-301.11263987 332.70797641 -295.05465239 328.85678831 -289 325 C-281.40541918 320.1622837 -273.79984917 315.34256929 -266.18359375 310.5390625 C-260.11263987 306.70797641 -254.05465239 302.85678831 -248 299 C-241.17538227 294.65274698 -234.34406603 290.31657141 -227.5 286 C-216.98031048 279.36424839 -206.49006397 272.68245131 -196 266 C-177.04613469 253.92588087 -158.07040341 241.88941013 -139 230 C-141.99974538 229.51919404 -144.99977769 229.04031318 -148 228.5625 C-149.25876953 228.36043945 -149.25876953 228.36043945 -150.54296875 228.15429688 C-155.68651294 227.33691195 -160.82846341 226.6165142 -166 226 C-165.46094224 222.315246 -164.64177031 220.09191942 -162.296875 217.20703125 C-161.45503662 216.15261841 -161.45503662 216.15261841 -160.59619141 215.0769043 C-159.98694824 214.32965088 -159.37770508 213.58239746 -158.75 212.8125 C-157.45830817 211.19219676 -156.16930925 209.56974363 -154.8828125 207.9453125 C-153.90296387 206.7082959 -153.90296387 206.7082959 -152.90332031 205.44628906 C-150.04019164 201.76638279 -147.32775826 197.9859596 -144.625 194.1875 C-139.81206258 187.44284446 -134.85540672 180.82439943 -129.8125 174.25 C-125.04762547 168.03710883 -120.36575 161.79309477 -115.86645508 155.38574219 C-112.04767035 149.98614348 -108.02324686 144.74817728 -104 139.5 C-99.15183136 133.17437953 -94.37694244 126.82124527 -89.78808594 120.30541992 C-85.58478523 114.36057822 -81.19444708 108.5585012 -76.81494141 102.74291992 C-72.44557836 96.93740728 -68.11441328 91.10564766 -63.8125 85.25 C-59.57082483 79.47765904 -55.30698491 73.72378454 -51 68 C-46.67650294 62.25237684 -42.38903774 56.47937653 -38.125 50.6875 C-37.24497314 49.49229736 -37.24497314 49.49229736 -36.34716797 48.27294922 C-33.41474278 44.28789972 -30.48647219 40.29984916 -27.5625 36.30859375 C-21.17943325 27.6058957 -14.7272853 18.96075165 -8.1875 10.375 C-7.1368335 8.99562256 -7.1368335 8.99562256 -6.06494141 7.58837891 C-1.13465537 1.13465537 -1.13465537 1.13465537 0 0 Z M-40.04296875 353.62890625 C-52.16256876 368.31273301 -57.5009015 385.08864114 -56 404 C-52.81937869 421.92713828 -44.29448586 437.20432141 -29.6484375 448.22265625 C-14.26681186 458.54513363 3.1859303 462.44326777 21.4375 459 C38.01083641 454.60216134 52.07003235 445.12823876 61.47265625 430.66796875 C70.77985747 414.41012109 74.24238846 396.81189142 69.375 378.4375 C65.67854943 367.45118524 60.15484928 359.18212302 52 351 C51.31164062 350.2884375 50.62328125 349.576875 49.9140625 348.84375 C37.5771824 336.91962797 21.82883391 332.42819755 5.04833984 332.51416016 C-12.57205595 333.04886959 -28.00523075 340.74249656 -40.04296875 353.62890625 Z " fill="#FFFFFF" transform="translate(451,54)"/>
</svg>
