<?xml version="1.0" standalone="no"?>
<!DOCTYPE svg PUBLIC "-//W3C//DTD SVG 20010904//EN"
 "http://www.w3.org/TR/2001/REC-SVG-20010904/DTD/svg10.dtd">
<svg version="1.0" xmlns="http://www.w3.org/2000/svg"
 width="925.000000pt" height="893.000000pt" viewBox="0 0 925.000000 893.000000"
 preserveAspectRatio="xMidYMid meet">

<g transform="translate(0.000000,893.000000) scale(0.100000,-0.100000)"
fill="#000000" stroke="none">
<path d="M3687 7258 c-551 -744 -813 -1104 -805 -1108 7 -4 58 -12 113 -19
135 -16 165 -22 165 -31 0 -4 -549 -355 -1220 -781 l-1220 -774 440 -3 441 -2
1160 736 1160 735 52 -8 52 -8 -2 -105 c-4 -229 -104 -454 -274 -616 -80 -76
-137 -114 -241 -164 -150 -72 -210 -82 -489 -88 l-246 -4 -31 -221 c-18 -122
-32 -228 -32 -235 0 -12 55 -13 313 -9 302 5 331 7 457 41 l25 7 0 -171 0
-172 -30 6 c-16 3 -66 13 -110 21 -59 12 -164 18 -402 22 l-322 5 -5 -23 c-3
-13 -24 -154 -46 -314 -23 -159 -44 -300 -48 -312 -8 -26 65 -74 -630 420
l-334 237 -446 0 c-436 0 -446 0 -427 -19 11 -10 502 -375 1090 -811 589 -436
1078 -800 1087 -808 23 -19 22 -21 43 151 13 99 21 135 29 128 6 -5 358 -561
781 -1235 l770 -1225 3 441 2 441 -732 1166 -733 1166 3 49 c2 27 6 54 9 59
10 17 230 1 308 -22 318 -95 556 -339 637 -654 18 -70 21 -120 25 -337 l5
-256 226 -42 c125 -24 230 -43 235 -42 11 0 8 572 -4 653 -9 62 -29 154 -45
208 -4 14 10 16 123 16 71 -1 161 5 201 12 40 7 76 11 78 8 3 -3 -7 -52 -22
-109 -27 -102 -28 -108 -32 -460 -2 -197 -1 -358 3 -358 4 0 142 -20 307 -45
166 -25 305 -45 309 -45 5 0 9 -6 9 -12 0 -7 -144 -222 -320 -478 l-320 -465
0 -450 c0 -377 2 -447 13 -435 18 19 1627 2189 1627 2194 0 1 -65 11 -145 21
-87 11 -145 23 -145 29 1 6 548 357 1216 781 669 423 1218 773 1221 777 2 5
-193 8 -434 8 l-438 0 -1160 -737 c-1075 -683 -1163 -736 -1200 -734 -81 4
-79 0 -72 120 20 364 237 668 572 801 124 49 202 60 439 60 l214 0 6 28 c3 15
17 110 31 212 14 102 28 198 31 214 l6 29 -283 -6 c-305 -6 -392 -18 -548 -71
-41 -14 -77 -24 -78 -22 -2 2 1 32 7 67 13 80 13 206 0 283 -5 33 -8 61 -6 63
2 2 43 -8 92 -22 157 -46 253 -55 582 -55 235 0 302 3 302 13 0 21 91 621 95
625 2 2 222 -143 489 -322 l485 -326 436 2 437 3 -1102 818 c-606 450 -1104
816 -1106 814 -3 -2 -13 -66 -23 -141 -16 -124 -24 -157 -35 -145 -2 2 -347
551 -766 1219 -420 668 -769 1224 -777 1235 -11 16 -13 -49 -13 -425 l0 -445
736 -1170 736 -1170 -6 -48 c-3 -26 -8 -53 -12 -59 -5 -7 -38 -9 -108 -5 -416
25 -757 316 -841 719 -11 50 -15 138 -15 312 l0 243 -222 43 c-123 23 -231 44
-240 47 -17 4 -18 -13 -18 -269 0 -150 5 -313 11 -363 10 -83 37 -203 55 -249
7 -17 3 -18 -57 -10 -35 5 -124 9 -197 9 -128 0 -133 1 -127 20 45 154 48 183
52 537 l5 347 -24 5 c-13 3 -149 24 -303 46 -154 23 -288 44 -298 48 -15 6 33
81 308 481 l325 473 -2 449 -3 448 -818 -1101z m1028 -2193 c88 -19 214 -79
283 -136 101 -83 191 -228 223 -359 18 -75 16 -221 -5 -300 -68 -261 -295
-460 -560 -489 -133 -15 -277 15 -396 82 -30 16 -91 67 -135 111 -132 133
-189 273 -188 461 3 406 382 714 778 630z"/>
</g>
</svg>
